# File created by Blade
# Date/Time:  Wed Apr 08 17:31:45 2015
#---------------------------------------------------------
:version 1.10
:name HOM
:units
  mass 1.0
  length 1.000000
  angle deg
:documentation
     Acclaim Skeleton File
:root
   axis xyz
   order TX TY TZ RX RY RZ
   position 0.000000 0.000000 0.000000
   orientation 0 0 0
:bonedata
   begin
      id 1
      name Spine_dum
      direction 0.000000 1.000000 0.000000
      length 5.893853
      axis 0.0 0.0 0.0 xyz
   end
   begin
      id 2
      name LeftUpLeg_dum
      direction 1.000000 0.000000 0.000000
      length 3.697939
      axis 0.0 0.0 0.0 xyz
   end
   begin
      id 3
      name RightUpLeg_dum
      direction -1.000000 0.000000 0.000000
      length 3.697939
      axis 0.0 0.0 0.0 xyz
   end
   begin
      id 4
      name Spine
      direction 0.000000 1.000000 0.000000
      length 0.000000
      axis 0.0 0.0 0.0 xyz
      dof rx ry rz
   end
   begin
      id 5
      name Spine_dum1
      direction 0.000000 1.000000 0.000000
      length 16.447146
      axis 0.0 0.0 0.0 xyz
   end
   begin
      id 6
      name Spine_dum2
      direction 0.000000 1.000000 0.000000
      length 10.900383
      axis 0.0 0.0 0.0 xyz
   end
   begin
      id 7
      name Spine_dum3
      direction 0.000000 1.000000 0.000000
      length 10.900383
      axis 0.0 0.0 0.0 xyz
   end
   begin
      id 8
      name Head
      direction 0.000000 1.000000 0.000000
      length 4.527550
      axis 0.0 0.0 0.0 xyz
      dof rx ry rz
   end
   begin
      id 9
      name LeftShoulder
      direction 1.000000 0.000000 0.000000
      length 8.219464
      axis 0.0 0.0 -90.0 xyz
      dof rx ry rz
   end
   begin
      id 10
      name LeftArm
      direction 1.000000 0.000000 0.000000
      length 11.094937
      axis 0.0 0.0 -90.0 xyz
      dof rx ry rz
   end
   begin
      id 11
      name LeftForeArm
      direction 1.000000 0.000000 0.000000
      length 9.103875
      axis 0.0 0.0 -90.0 xyz
      dof ry rz rx
   end
   begin
      id 12
      name LeftHand
      direction 0.000000 0.000000 0.000000
      length 0.000000
      axis 0.0 0.0 -90.0 xyz
      dof rx ry rz
   end
   begin
      id 13
      name LeftHand_dum1
      direction 0.000000 0.000000 0.000000
      length 0.000000
      axis 0.0 0.0 -90.0 xyz
   end
   begin
      id 14
      name LeftHand_dum2
      direction 1.000000 0.000000 0.000000
      length 3.937000
      axis 0.0 0.0 -90.0 xyz
   end
   begin
      id 15
      name LeftHandThumb1
      direction 0.000000 0.000000 1.000000
      length 3.937000
      axis 0.0 0.0 -90.0 xyz
      dof rx rz ry
   end
   begin
      id 16
      name RightShoulder
      direction -1.000000 0.000000 0.000000
      length 8.219464
      axis 0.0 0.0 90.0 xyz
      dof rx ry rz
   end
   begin
      id 17
      name RightArm
      direction -1.000000 0.000000 0.000000
      length 11.094937
      axis 0.0 0.0 90.0 xyz
      dof rx ry rz
   end
   begin
      id 18
      name RightForeArm
      direction -1.000000 0.000000 0.000000
      length 9.103875
      axis 0.0 0.0 90.0 xyz
      dof ry rz rx
   end
   begin
      id 19
      name RightHand
      direction 0.000000 0.000000 0.000000
      length 0.000000
      axis 0.0 0.0 90.0 xyz
      dof rx ry rz
   end
   begin
      id 20
      name RightHand_dum1
      direction 0.000000 0.000000 0.000000
      length 0.000000
      axis 0.0 0.0 90.0 xyz
   end
   begin
      id 21
      name RightHand_dum2
      direction -1.000000 0.000000 0.000000
      length 3.937000
      axis 0.0 0.0 90.0 xyz
   end
   begin
      id 22
      name RightHandThumb1
      direction 0.000000 0.000000 1.000000
      length 3.937000
      axis 0.0 0.0 90.0 xyz
      dof rx rz ry
   end
   begin
      id 23
      name LeftUpLeg
      direction 0.000000 -1.000000 0.000000
      length 16.181467
      axis 0.0 0.0 0.0 xyz
      dof rx ry rz
   end
   begin
      id 24
      name LeftLeg
      direction 0.000000 -1.000000 0.000000
      length 16.501392
      axis 0.0 0.0 0.0 xyz
      dof rx ry rz
   end
   begin
      id 25
      name LeftFoot
      direction 0.000000 -0.258819 0.965926
      length 6.408245
      axis 15.0 0.0 0.0 xyz
      dof rx ry rz
   end
   begin
      id 26
      name LeftToeBase
      direction 0.000000 0.000000 1.000000
      length 2.952750
      axis 0.0 0.0 0.0 xyz
      dof rx ry rz
   end
   begin
      id 27
      name RightUpLeg
      direction 0.000000 -1.000000 0.000000
      length 16.181467
      axis 0.0 0.0 0.0 xyz
      dof rx ry rz
   end
   begin
      id 28
      name RightLeg
      direction 0.000000 -1.000000 0.000000
      length 16.501392
      axis 0.0 0.0 0.0 xyz
      dof rx ry rz
   end
   begin
      id 29
      name RightFoot
      direction 0.000000 -0.258819 0.965926
      length 6.408245
      axis 15.0 0.0 0.0 xyz
      dof rx ry rz
   end
   begin
      id 30
      name RightToeBase
      direction 0.000000 0.000000 1.000000
      length 2.952750
      axis 0.0 0.0 0.0 xyz
      dof rx ry rz
   end
:hierarchy
   begin
      root Spine_dum LeftUpLeg_dum RightUpLeg_dum
      Spine_dum Spine
      LeftUpLeg_dum LeftUpLeg
      RightUpLeg_dum RightUpLeg
      Spine Spine_dum1 Spine_dum2 Spine_dum3
      Spine_dum1 Head
      Spine_dum2 LeftShoulder
      Spine_dum3 RightShoulder
      LeftShoulder LeftArm
      LeftArm LeftForeArm
      LeftForeArm LeftHand
      LeftHand LeftHand_dum1 LeftHand_dum2
      LeftHand_dum1 LeftHandThumb1
      RightShoulder RightArm
      RightArm RightForeArm
      RightForeArm RightHand
      RightHand RightHand_dum1 RightHand_dum2
      RightHand_dum1 RightHandThumb1
      LeftUpLeg LeftLeg
      LeftLeg LeftFoot
      LeftFoot LeftToeBase
      RightUpLeg RightLeg
      RightLeg RightFoot
      RightFoot RightToeBase
   end

# File created by Blade
# Date/Time:  Wed Apr 08 17:31:39 2015
# Frame Rate: 120.000 fps
#------------------------------------------------------
:FULLY-SPECIFIED
:DEGREES
74
root 6.990072 36.067598 -0.375226 -140.876148 -86.438560 165.380351
Spine -23.916849 1.246953 -2.206694
Head 7.909904 9.281426 4.988190
LeftShoulder -3.759136 12.406269 27.949929
LeftArm 20.329861 -29.637306 -46.314524
LeftForeArm 12.615528 0.000000 17.335216
LeftHand -11.856825 -0.000000 -9.173745
LeftHandThumb1 -26.253704 0.000000 33.147579
RightShoulder -19.269179 -39.434039 -14.026359
RightArm 59.876493 42.446900 56.994179
RightForeArm 7.339777 -0.000000 12.629718
RightHand -2.270801 0.000000 5.446270
RightHandThumb1 -24.326973 -0.000000 -32.862282
LeftUpLeg -29.691897 15.494501 1.376555
LeftLeg 16.139104 -0.000000 -0.000000
LeftFoot -9.162161 6.836962 -13.959451
LeftToeBase 5.198883 -0.000000 -0.000000
RightUpLeg -32.084927 -5.277935 -5.450049
RightLeg 19.643113 -0.000000 -0.000000
RightFoot -13.690610 -4.834357 17.764584
RightToeBase 8.475661 -0.000000 -0.000000
75
root 6.995116 36.059053 -0.418748 -140.918944 -86.415562 165.405154
Spine -23.906905 1.271746 -2.151797
Head 7.991569 9.229122 5.015073
LeftShoulder -3.795696 12.503034 27.877358
LeftArm 20.329346 -29.342972 -46.644040
LeftForeArm 12.675978 -0.000000 18.194327
LeftHand -11.949279 -0.000000 -9.049682
LeftHandThumb1 -26.253704 0.000000 33.147579
RightShoulder -19.245568 -39.427521 -13.990037
RightArm 59.774927 42.166757 56.751804
RightForeArm 7.162902 -0.000000 13.364115
RightHand -2.176997 -0.000000 5.464585
RightHandThumb1 -24.326973 -0.000000 -32.862282
LeftUpLeg -29.718734 15.556667 1.434305
LeftLeg 16.217295 -0.000000 -0.000000
LeftFoot -9.150579 6.813409 -14.016285
LeftToeBase 5.176136 -0.000000 -0.000000
RightUpLeg -32.197000 -5.168533 -5.420181
RightLeg 19.883987 -0.000000 -0.000000
RightFoot -13.839663 -4.862178 17.710153
RightToeBase 8.526701 -0.000000 -0.000000
76
root 7.001783 36.050111 -0.466609 -141.142904 -86.416543 165.564752
Spine -23.828929 1.279228 -2.052106
Head 8.063166 9.204207 5.022070
LeftShoulder -3.848909 12.576044 27.761020
LeftArm 20.296086 -28.939119 -46.904116
LeftForeArm 12.580334 0.000000 19.028959
LeftHand -12.061338 -0.000000 -8.830788
LeftHandThumb1 -26.253704 0.000000 33.147579
RightShoulder -19.247026 -39.437679 -13.902664
RightArm 59.682291 41.885343 56.425555
RightForeArm 7.086200 -0.000000 14.127955
RightHand -2.185217 -0.000000 5.455361
RightHandThumb1 -24.326973 -0.000000 -32.862282
LeftUpLeg -29.710900 15.596538 1.539036
LeftLeg 16.315319 -0.000000 -0.000000
LeftFoot -9.136235 6.782161 -14.097326
LeftToeBase 5.121884 -0.000000 -0.000000
RightUpLeg -32.253051 -5.086190 -5.357807
RightLeg 20.111122 -0.000000 -0.000000
RightFoot -13.980629 -4.869766 17.660999
RightToeBase 8.458699 -0.000000 -0.000000
77
root 7.007276 36.041628 -0.517463 -141.287124 -86.409788 165.660567
Spine -23.781751 1.290045 -1.964491
Head 8.176674 9.187456 5.033835
LeftShoulder -3.887302 12.699789 27.690017
LeftArm 20.296689 -28.614897 -47.296964
LeftForeArm 12.691078 -0.000000 19.875362
LeftHand -12.121018 -0.000000 -8.589186
LeftHandThumb1 -26.253704 0.000000 33.147579
RightShoulder -19.262126 -39.490522 -13.790691
RightArm 59.626624 41.607435 56.119026
RightForeArm 7.138999 -0.000000 14.906227
RightHand -2.219398 -0.000000 5.446836
RightHandThumb1 -24.326973 -0.000000 -32.862282
LeftUpLeg -29.728025 15.651878 1.630876
LeftLeg 16.432213 -0.000000 -0.000000
LeftFoot -9.113227 6.755136 -14.154858
LeftToeBase 5.049891 -0.000000 -0.000000
RightUpLeg -32.322750 -5.034497 -5.283253
RightLeg 20.331266 -0.000000 -0.000000
RightFoot -14.106338 -4.850546 17.590760
RightToeBase 8.430660 -0.000000 -0.000000
78
root 7.014992 36.033056 -0.571462 -141.469366 -86.409107 165.797946
Spine -23.732987 1.297091 -1.873105
Head 8.303141 9.128010 5.047767
LeftShoulder -3.899848 12.789292 27.625137
LeftArm 20.225653 -28.245981 -47.647658
LeftForeArm 12.694174 -0.000000 20.704454
LeftHand -12.155810 0.000000 -8.439693
LeftHandThumb1 -26.253704 0.000000 33.147579
RightShoulder -19.264922 -39.571682 -13.682972
RightArm 59.607533 41.358684 55.909796
RightForeArm 7.083959 -0.000000 15.722681
RightHand -2.130210 0.000000 5.519945
RightHandThumb1 -24.326973 -0.000000 -32.862282
LeftUpLeg -29.767868 15.699543 1.731217
LeftLeg 16.577264 -0.000000 -0.000000
LeftFoot -9.096447 6.742573 -14.208909
LeftToeBase 5.020478 -0.000000 -0.000000
RightUpLeg -32.393755 -4.956289 -5.215941
RightLeg 20.545538 -0.000000 -0.000000
RightFoot -14.233317 -4.823062 17.553704
RightToeBase 8.375401 -0.000000 -0.000000
79
root 7.022316 36.024933 -0.629661 -141.986131 -86.395957 166.259287
Spine -23.674660 1.335279 -1.777969
Head 8.431568 9.071500 5.086723
LeftShoulder -3.955098 12.982007 27.539348
LeftArm 20.355944 -28.050874 -48.135992
LeftForeArm 12.877927 -0.000000 21.464439
LeftHand -11.967017 -0.000000 -8.478889
LeftHandThumb1 -26.253704 0.000000 33.147579
RightShoulder -19.270154 -39.628739 -13.556619
RightArm 59.459048 41.051123 55.525878
RightForeArm 7.211057 -0.000000 16.572264
RightHand -2.168726 -0.000000 5.445499
RightHandThumb1 -24.326973 -0.000000 -32.862282
LeftUpLeg -29.798746 15.778704 1.851234
LeftLeg 16.731835 -0.000000 -0.000000
LeftFoot -9.070383 6.706583 -14.289166
LeftToeBase 4.953716 -0.000000 -0.000000
RightUpLeg -32.439359 -4.839606 -5.137333
RightLeg 20.723041 -0.000000 -0.000000
RightFoot -14.357165 -4.819409 17.535041
RightToeBase 8.383981 -0.000000 -0.000000
80
root 7.027679 36.015391 -0.691636 -142.528403 -86.418710 166.694556
Spine -23.548978 1.346756 -1.648711
Head 8.554447 9.033578 5.092619
LeftShoulder -3.998189 13.092263 27.437538
LeftArm 20.427261 -27.844222 -48.592310
LeftForeArm 13.109781 -0.000000 22.161933
LeftHand -11.862742 -0.000000 -8.618303
LeftHandThumb1 -26.253704 0.000000 33.147579
RightShoulder -19.256422 -39.676109 -13.457229
RightArm 59.441256 40.811730 55.381780
RightForeArm 7.168866 -0.000000 17.433532
RightHand -2.126902 0.000000 5.517508
RightHandThumb1 -24.326973 -0.000000 -32.862282
LeftUpLeg -29.791160 15.849473 2.003007
LeftLeg 16.908472 -0.000000 -0.000000
LeftFoot -9.046365 6.656193 -14.371479
LeftToeBase 4.881268 -0.000000 -0.000000
RightUpLeg -32.408999 -4.770970 -5.027819
RightLeg 20.873738 -0.000000 -0.000000
RightFoot -14.475272 -4.798779 17.479996
RightToeBase 8.348442 -0.000000 -0.000000
